# xmcd CD database file
#
# Track frame offsets:
#	150
#	19575
#	36300
#	53800
#	83146
#	98935
#	114054
#	136186
#	155411
#	174477
#	188802
#
# Disc length: 2570 seconds
#
# Revision: 0
# Processed by: cddbd v1.5.2PL0 Copyright (c) Steve Scherf et al.
# Submitted via: CDex 1.70beta2
#
DISCID=800a080b
DTITLE=Erroll Garner - Modern Jazz Modern Mainstream CD091
DYEAR=2008
DGENRE=Jazz
TTITLE0=I'll Remember April
TTITLE1=Teach Me Tonight
TTITLE2=Mambo carmel
TTITLE3=Autumn Leaves
TTITLE4=It's All Right With Me
TTITLE5=Red Top
TTITLE6=April In Paris
TTITLE7=They Can't Take That Away From Me
TTITLE8=How Youlld You Do A Thing Like That To Me
TTITLE9=Where Or when
TTITLE10=Errolls's Theme
EXTD=YEAR: 2008
EXTT0=
EXTT1=
EXTT2=
EXTT3=
EXTT4=
EXTT5=
EXTT6=
EXTT7=
EXTT8=
EXTT9=
EXTT10=
PLAYORDER=
